<!-- MainLogo.svg -->
<svg xmlns="http://www.w3.org/2000/svg" width="50" height="50" viewBox="0 0 86.316 100">
  <g id="SvgjsG5210" featurekey="symbolFeature-0" fill="#3f72af">
    <path d="M21.053,24.21h44.21v6.316h-44.21z" fill="#3f72af"></path>
    <path d="M21.053,46.316h44.21v6.316h-44.21z" fill="#3f72af"></path>
    <path d="M21.053,67.368h44.21v6.316h-44.21z" fill="#3f72af"></path>
    <path d="M82.106,0H4.21C1.578,0,0,1.578,0,4.21v91.58C0,98.422,1.578,100,4.209,100h77.896 c2.632,0,4.209-1.578,4.209-4.21V4.21C86.316,1.578,84.738,0,82.106,0z M80,91.579c0,1.315-0.789,2.104-2.105,2.104H8.421 c-1.316,0-2.105-0.789-2.105-2.104V8.421c0-1.316,0.789-2.106,2.105-2.106h69.473c1.316,0,2.105,0.79,2.105,2.106V91.579z" fill="#3f72af"></path>
  </g>
</svg>
